<svg width="256" height="256" viewBox="0 0 256 256" fill="none" xmlns="http://www.w3.org/2000/svg">
<path d="M0 45C0 20.1472 20.1472 0 45 0H211C235.853 0 256 20.1472 256 45V211C256 235.853 235.853 256 211 256H45C20.1472 256 0 235.853 0 211V45Z" fill="#C6E6E0"/>
<path fill-rule="evenodd" clip-rule="evenodd" d="M256 128.897V210.5C256 235.353 235.853 255.5 211 255.5H143.823L71.5 184.5L182.5 69.5L256 128.897Z" fill="#206E6C"/>
<path fill-rule="evenodd" clip-rule="evenodd" d="M183.5 0L0 183.5V134.5L134.5 0H183.5Z" fill="white" fill-opacity="0.6"/>
<path fill-rule="evenodd" clip-rule="evenodd" d="M111.5 0H45C20.1472 0 0 20.1472 0 45V111.5L111.5 0Z" fill="white" fill-opacity="0.6"/>
<circle cx="128" cy="128" r="80" fill="#F8F8F8"/>
<circle cx="128" cy="128" r="65" fill="#8DD6D0"/>
<path d="M173.962 82.0381C186.152 94.2279 193 110.761 193 128C193 145.239 186.152 161.772 173.962 173.962C161.772 186.152 145.239 193 128 193C110.761 193 94.2279 186.152 82.0381 173.962L128 128L173.962 82.0381Z" fill="#5BC4BD"/>
<circle cx="128.5" cy="127.5" r="31.5" fill="#4EBAAF"/>
<path d="M150.774 105.226C156.681 111.134 160 119.146 160 127.5C160 135.854 156.681 143.866 150.774 149.774C144.866 155.681 136.854 159 128.5 159C120.146 159 112.134 155.681 106.226 149.774L128.5 127.5L150.774 105.226Z" fill="#179E91"/>
<circle cx="128" cy="128" r="15" fill="#679495"/>
<path d="M138.607 117.393C141.42 120.206 143 124.022 143 128C143 131.978 141.42 135.794 138.607 138.607C135.794 141.42 131.978 143 128 143C124.022 143 120.206 141.42 117.393 138.607L128 128L138.607 117.393Z" fill="#206E6C"/>
<circle cx="104.5" cy="104.5" r="7.5" fill="#F8F8F8"/>
<circle cx="39.5" cy="38.5" r="7.5" fill="#D9666A" fill-opacity="0.8"/>
</svg>
