<svg width="256" height="257" viewBox="0 0 256 257" fill="none" xmlns="http://www.w3.org/2000/svg">
<path d="M0 45C0 20.1472 20.1472 0 45 0H211C235.853 0 256 20.1472 256 45V211C256 235.853 235.853 256 211 256H45C20.1472 256 0 235.853 0 211V45Z" fill="#3CBEE9"/>
<path fill-rule="evenodd" clip-rule="evenodd" d="M256 129.843V211.5C256 236.353 235.853 256.5 211 256.5H143.941L72 185L184.5 72L256 129.843Z" fill="#385DA3"/>
<circle cx="128" cy="128" r="80" fill="#F1F6F9"/>
<circle cx="128" cy="128" r="65" fill="#76D3EE"/>
<path d="M173.962 82.0381C186.152 94.2279 193 110.761 193 128C193 145.239 186.152 161.772 173.962 173.962C161.772 186.152 145.239 193 128 193C110.761 193 94.2279 186.152 82.0381 173.962L128 128L173.962 82.0381Z" fill="#3CBEE9"/>
<circle cx="128.5" cy="127.5" r="31.5" fill="#BEE1F3"/>
<circle cx="128" cy="128" r="15" fill="#F7F7F9"/>
<path d="M150.774 105.226C156.681 111.134 160 119.146 160 127.5C160 135.854 156.681 143.866 150.774 149.774C144.866 155.681 136.854 159 128.5 159C120.146 159 112.134 155.681 106.226 149.774L128.5 127.5L150.774 105.226Z" fill="#8BD4EF"/>
<path d="M138.607 117.393C141.42 120.206 143 124.022 143 128C143 131.978 141.42 135.794 138.607 138.607C135.794 141.42 131.978 143 128 143C124.022 143 120.206 141.42 117.393 138.607L128 128L138.607 117.393Z" fill="#D8EEF8"/>
<circle cx="104.5" cy="104.5" r="7.5" fill="#F8F8F8"/>
<circle cx="127.5" cy="48.5" r="7.5" fill="#F8F8F8"/>
<circle cx="127.5" cy="207.5" r="7.5" fill="#F8F8F8"/>
<circle cx="47.5" cy="127.5" r="7.5" fill="#F8F8F8"/>
<circle cx="207.5" cy="127.5" r="7.5" fill="#F8F8F8"/>
<path d="M119.968 124L136.453 128.152L126.561 167.426C125.415 171.978 120.795 174.739 116.243 173.592C111.69 172.446 108.929 167.826 110.076 163.273L119.968 124Z" fill="#F8F8F8"/>
<path d="M136.484 128.669L120 124.512L129.904 85.2419C131.052 80.69 135.672 77.9306 140.224 79.0785C144.776 80.2265 147.535 84.8471 146.387 89.399L136.484 128.669Z" fill="#EF897F"/>
<path fill-rule="evenodd" clip-rule="evenodd" d="M130 126.92L136.272 128.501L138.92 118L130 126.92Z" fill="#DF5E46"/>
</svg>
